<svg xmlns="http://www.w3.org/2000/svg" width="27" height="28" viewBox="0 0 27 28">
    <g fill="none" fill-rule="evenodd" stroke="#1F8DF8" stroke-width="1.08" transform="translate(1 1.5)">
        <path d="M8.217 12.326h6.037m-4.12-4.383v9.335m-1.917 0h6.3a2.498 2.498 0 0 0 2.246-3.582 2.421 2.421 0 0 0-2.246-1.403h-.394a2.191 2.191 0 0 0 0-4.382H8.217m3.024-1.885v1.917m2.74-1.917v1.917m-2.74 9.335v1.896m2.74-1.917v1.917"/>
        <circle cx="12.6" cy="12.6" r="12.6"/>
        <circle cx="12.6" cy="12.6" r="10.409"/>
        <path d="M12.6 0v2.191M23.009 12.6H25.2M12.6 23.009V25.2M0 12.6h2.191M21.508 3.692l-1.545 1.545M19.963 19.963l1.545 1.545M5.237 19.963l-1.545 1.545M3.692 3.692l1.545 1.545M.427 9.335l2.115.57M15.295 2.542l.57-2.115M22.658 15.295l2.115.57M9.335 24.773l.57-2.115M6.3 1.687l1.096 1.896M21.617 7.396L23.513 6.3M17.804 21.617l1.096 1.896M1.687 18.9l1.896-1.096M1.687 6.3l1.896 1.096M17.804 3.583L18.9 1.687M21.617 17.804l1.896 1.096M6.3 23.513l1.096-1.896M9.335.427l.57 2.115M22.658 9.905l2.115-.57M15.295 22.658l.57 2.115M.427 15.865l2.115-.57"/>
    </g>
</svg>
