<svg xmlns="http://www.w3.org/2000/svg" xmlns:xlink="http://www.w3.org/1999/xlink" width="105" height="106" viewBox="0 0 105 106">
    <defs>
        <circle id="b" cx="31.5" cy="31.5" r="31.5"/>
        <filter id="a" width="222.2%" height="222.2%" x="-61.1%" y="-43.7%" filterUnits="objectBoundingBox">
            <feOffset dy="11" in="SourceAlpha" result="shadowOffsetOuter1"/>
            <feGaussianBlur in="shadowOffsetOuter1" result="shadowBlurOuter1" stdDeviation="11"/>
            <feColorMatrix in="shadowBlurOuter1" values="0 0 0 0 0.17254902 0 0 0 0 0.168627451 0 0 0 0 0.223529412 0 0 0 0.12 0"/>
        </filter>
    </defs>
    <g fill="none" fill-rule="evenodd">
        <g transform="translate(21 10.667)">
            <use fill="#000" filter="url(#a)" xlink:href="#b"/>
            <use fill="#FFF" xlink:href="#b"/>
        </g>
        <path fill="#1F8EFA" fill-rule="nonzero" d="M46.068 54.667l-4.924-4.803 3.526-3.506a5.382 5.382 0 0 1 5.57-1.261l.773.264h4.764a1.505 1.505 0 0 1 1.5 1.548 1.544 1.544 0 0 1-1.564 1.456h-2.86a.584.584 0 1 0 0 1.169h2.862a2.721 2.721 0 0 0 2.728-2.581v-.037l2.647-2.978a1.601 1.601 0 0 1 2.203-.216 1.564 1.564 0 0 1 .181 2.229l-5.285 6.064a3.708 3.708 0 0 1-2.795 1.27h-7.947l-1.38 1.382zm1.935-22.134h1.052l1.682 5.846-.001-.001c.234.81.975 1.365 1.816 1.364h5.006a1.888 1.888 0 0 0 1.815-1.366l1.089-3.79a1.182 1.182 0 0 0-1.133-1.507h-8.023l-.502-1.538a1.268 1.268 0 0 0-1.206-.874h-1.571a.947.947 0 0 0-.937.734.931.931 0 0 0 .913 1.132zm3.744 9.906a1.245 1.245 0 1 0 2.395-.473 1.244 1.244 0 0 0-2.395.473zm4.135 0a1.246 1.246 0 1 0 1.245-1.242 1.25 1.25 0 0 0-1.248 1.242h.003z"/>
    </g>
</svg>
