<svg xmlns="http://www.w3.org/2000/svg" xmlns:xlink="http://www.w3.org/1999/xlink" width="105" height="106" viewBox="0 0 105 106">
    <defs>
        <circle id="b" cx="31.5" cy="31.5" r="31.5"/>
        <filter id="a" width="222.2%" height="222.2%" x="-61.1%" y="-43.7%" filterUnits="objectBoundingBox">
            <feOffset dy="11" in="SourceAlpha" result="shadowOffsetOuter1"/>
            <feGaussianBlur in="shadowOffsetOuter1" result="shadowBlurOuter1" stdDeviation="11"/>
            <feColorMatrix in="shadowBlurOuter1" values="0 0 0 0 0.17254902 0 0 0 0 0.168627451 0 0 0 0 0.223529412 0 0 0 0.12 0"/>
        </filter>
    </defs>
    <g fill="none" fill-rule="evenodd">
        <g transform="translate(21 10.333)">
            <use fill="#000" filter="url(#a)" xlink:href="#b"/>
            <use fill="#FFF" xlink:href="#b"/>
        </g>
        <path fill="#1F8EFA" fill-rule="nonzero" d="M51.51 41.991c0 .536.922 1.071 2.06 1.071 1.136 0 2.059-.535 2.059-1.07 0-.536-.923-1.072-2.06-1.072s-2.059.536-2.059 1.071zm-8.762.86c0 5.66 4.732 10.247 10.569 10.247 5.832 0 10.564-4.588 10.564-10.247s-4.732-10.246-10.564-10.246c-1.645 0-3.2.365-4.59 1.014.084.36.131.736.131 1.122 0 2.77-2.316 5.015-5.172 5.015-.146 0-.292-.005-.44-.02-.319.984-.498 2.029-.498 3.115zm17.57-1.169l-8.201 5.031-5.35-2.378.583-.35 4.768 2.079 7.619-4.68.581.298zm0 1.081l-8.201 5.032-5.35-2.38.583-.35 4.768 2.08 7.619-4.68.581.298zm0-2.162l-8.201 5.031-5.35-2.379 8.2-5.03 5.351 2.378zm-21.065-5.86c0 2.373 1.986 4.3 4.433 4.3 2.452 0 4.433-1.926 4.433-4.3 0-2.374-1.98-4.3-4.433-4.3-2.446 0-4.433 1.926-4.433 4.3zm5.015-1.679V34.3h1.279a.45.45 0 0 1 .456.442.449.449 0 0 1-.456.443h-1.279v1.241c0 .242-.215.428-.466.428a.43.43 0 0 1-.446-.428v-1.241h-1.274a.448.448 0 0 1-.456-.443c0-.242.205-.442.456-.442h1.274v-1.237c0-.247.205-.442.456-.442s.456.195.456.442z"/>
    </g>
</svg>
