<svg xmlns="http://www.w3.org/2000/svg" width="26" height="26" viewBox="0 0 26 26">
    <g fill="none" fill-rule="evenodd" stroke="#1F8EFA" stroke-width=".9" transform="translate(.633 .6)">
        <circle cx="12.6" cy="12.6" r="12.075"/>
        <circle cx="12.6" cy="12.6" r="9.975"/>
        <path d="M12.6.525v2.1M22.575 12.6h2.1M12.6 22.575v2.1M.525 12.6h2.1M21.137 4.064l-1.481 1.48M19.656 19.656l1.48 1.48M5.544 19.656l-1.48 1.48M4.064 4.064l1.48 1.48M.934 9.471l2.027.546M15.183 2.961l.546-2.026M22.239 15.183l2.026.546M9.471 24.265l.546-2.026M6.563 2.142l1.05 1.817M21.241 7.612l1.817-1.05M17.587 21.241l1.05 1.817M2.142 18.637l1.817-1.05M2.142 6.563l1.817 1.05M17.587 3.958l1.05-1.816M21.241 17.587l1.817 1.05M6.563 23.058l1.05-1.817M9.471.934l.546 2.027M22.239 10.017l2.026-.546M15.183 22.239l.546 2.026M.934 15.729l2.027-.546M12.6 14.794L10.815 12.6l-1.176 1.46 2.961 5.134 2.961-5.134-1.176-1.46z"/>
        <path d="M12.6 6.006L9.639 11.14l2.961 3.654 2.961-3.654z"/>
    </g>
</svg>
