<svg xmlns="http://www.w3.org/2000/svg" xmlns:xlink="http://www.w3.org/1999/xlink" width="105" height="105" viewBox="0 0 105 105">
    <defs>
        <circle id="b" cx="31.5" cy="31.5" r="31.5"/>
        <filter id="a" width="222.2%" height="222.2%" x="-61.1%" y="-43.7%" filterUnits="objectBoundingBox">
            <feOffset dy="11" in="SourceAlpha" result="shadowOffsetOuter1"/>
            <feGaussianBlur in="shadowOffsetOuter1" result="shadowBlurOuter1" stdDeviation="11"/>
            <feColorMatrix in="shadowBlurOuter1" values="0 0 0 0 0.17254902 0 0 0 0 0.168627451 0 0 0 0 0.223529412 0 0 0 0.12 0"/>
        </filter>
    </defs>
    <g fill="none" fill-rule="evenodd">
        <g transform="translate(21 10)">
            <use fill="#000" filter="url(#a)" xlink:href="#b"/>
            <use fill="#FFF" xlink:href="#b"/>
        </g>
        <g fill="#1F8EFA" fill-rule="nonzero">
            <path d="M62.658 50.312c-.575 0-1.06.36-1.255.863h-4.184v-2.837h-.958v3.316c0 .269.215.48.48.48h4.662c.196.507.68.866 1.255.866a1.344 1.344 0 0 0 0-2.688zM62.658 40.153a1.35 1.35 0 0 0-1.255.868h-.389v.958h.389c.196.508.68.868 1.255.868.743 0 1.342-.604 1.342-1.347s-.6-1.347-1.342-1.347zM57.22 31.826h4.183c.196.503.68.863 1.255.863A1.34 1.34 0 0 0 64 31.347c0-.743-.599-1.347-1.342-1.347-.575 0-1.06.36-1.255.868H56.74a.48.48 0 0 0-.479.479v3.32h.959v-2.841zM42.347 42.847c.574 0 1.06-.36 1.25-.868h.393v-.958h-.393a1.34 1.34 0 0 0-1.25-.868 1.348 1.348 0 0 0 0 2.694zM42.347 32.688c.574 0 1.06-.36 1.25-.863h4.188v2.841h.958v-3.32a.48.48 0 0 0-.479-.478h-4.667a1.333 1.333 0 0 0-1.25-.868 1.343 1.343 0 1 0 0 2.688zM47.785 51.174h-4.188A1.344 1.344 0 1 0 42.347 53c.574 0 1.06-.36 1.25-.868h4.667c.264 0 .48-.21.48-.479v-3.316h-.959v2.837zM60.056 36.584a.958.958 0 0 0-.958-.959H45.907a.955.955 0 0 0-.959.959v9.837c0 .527.427.958.959.958h13.19a.961.961 0 0 0 .96-.958v-2.425h-3.71a2.502 2.502 0 0 1-2.496-2.497 2.502 2.502 0 0 1 2.496-2.497h3.71v-2.418z"/>
            <path d="M54.81 41.5c0 .848.69 1.539 1.538 1.539h3.71v-3.077h-3.71c-.848 0-1.538.69-1.538 1.538zm2.425 0a.75.75 0 1 1-1.5.005.75.75 0 0 1 1.5-.005z"/>
        </g>
    </g>
</svg>
