<svg xmlns="http://www.w3.org/2000/svg" width="90" height="39" viewBox="0 0 90 39">
    <g fill="none" fill-rule="evenodd">
        <path fill="#286AA5" d="M13.153.946C12.514-.08 11.47-.08 10.83.946L5.7 9.2l6.291 10.126 6.291-10.126L13.153.946"/>
        <path fill="#597FB3" d="M5.7 9.201L.574 17.457c-.32.515-.48 1.192-.48 1.87 0 .679.16 1.357.48 1.872l5.129 8.253 6.29-10.125L5.7 9.201"/>
        <path fill="#597FB3" d="M23.411 17.458l-5.129-8.257-6.29 10.126 6.29 10.125L23.41 21.2c.292-.472.444-1.081.469-1.703v-.338c-.025-.62-.176-1.23-.468-1.7"/>
        <path fill="#F8C638" d="M11.991 24.149L7.2 31.863l3.63 5.842c.319.515.74.773 1.162.773h.001c.422 0 .843-.258 1.162-.773l3.63-5.842-4.793-7.714"/>
        <path fill="#FFFFFE" d="M64.018 14.394H74.02v-2.5H64.018zM36.418 11.895L30.88 26.769v.08h3.243l3.719-11.173 3.747 11.173h3.282L39.27 11.895h-2.852M51.589 15.352c.51-.758 1.284-1.133 2.325-1.133.51 0 .939.055 1.297.181.353.114.644.29.871.527.224.231.396.517.519.863.117.34.198.737.231 1.179h3.079a6.963 6.963 0 0 0-.535-2.11 4.926 4.926 0 0 0-1.167-1.672 5.318 5.318 0 0 0-1.823-1.103 6.735 6.735 0 0 0-.626-.19h-.002a7.826 7.826 0 0 0-1.844-.206c-.603 0-1.167.067-1.694.206h-.001a5.436 5.436 0 0 0-.87.3 5.461 5.461 0 0 0-1.959 1.44c-.539.623-.951 1.377-1.246 2.265-.295.893-.443 1.891-.443 2.99v.986c0 1.103.144 2.098.43 2.986.282.885.69 1.638 1.217 2.266.53.62 1.18 1.095 1.946 1.428.277.121.562.218.864.294h.003c.531.14 1.104.207 1.714.207.67 0 1.29-.067 1.854-.206l.003-.001c.214-.05.415-.11.612-.181.72-.257 1.339-.61 1.844-1.07a4.831 4.831 0 0 0 1.188-1.633c.295-.636.46-1.336.514-2.098h-3.08a4.039 4.039 0 0 1-.247 1.17 2.25 2.25 0 0 1-.548.84 2.32 2.32 0 0 1-.88.5c-.354.11-.775.165-1.26.165-.551 0-1.019-.102-1.406-.295a2.328 2.328 0 0 1-.94-.88c-.243-.388-.42-.876-.534-1.458-.114-.585-.168-1.26-.168-2.034v-1.007c0-1.587.252-2.758.762-3.516M64.018 26.849h10.024v-2.473H64.018zM64.018 20.399h10.024v-2.474H64.018zM85.294 19.31l4.355-7.415h-3.542l-2.805 5.159-2.805-5.16h-3.542l4.355 7.417-4.468 7.538h3.584l2.876-5.239 2.876 5.239h3.58l-4.464-7.538"/>
    </g>
</svg>
