<svg xmlns="http://www.w3.org/2000/svg" xmlns:xlink="http://www.w3.org/1999/xlink" viewBox="0 0 48 48">
  <defs>
    <style>
      .cls-1 {
        clip-path: url(#clip-referral);
      }

      .cls-2 {
        fill: #1f2636;
        stroke: #1f2636;
      }

      .cls-3, .cls-4, .cls-6 {
        fill: none;
      }

      .cls-3, .cls-4 {
        stroke: #fff;
        stroke-width: 0.96px;
      }

      .cls-3 {
        fill-rule: evenodd;
      }

      .cls-5 {
        stroke: none;
      }
    </style>
    <clipPath id="clip-referral">
      <rect width="48" height="48"/>
    </clipPath>
  </defs>
  <g id="referral" class="cls-1">
    <g id="Ellipse_1" data-name="Ellipse 1" class="cls-2">
      <circle class="cls-5" cx="24" cy="24" r="24"/>
      <circle class="cls-6" cx="24" cy="24" r="23.5"/>
    </g>
    <g id="referral-2" data-name="referral" transform="translate(8.525 11.155)">
      <path id="Path_1" data-name="Path 1" class="cls-3" d="M.475,9.12h30V19.665h-30ZM3.084,19.665H8.3V22.3H3.084Zm19.565,0h5.217V22.3H22.649Z" transform="translate(0 3.087)"/>
      <path id="Path_2" data-name="Path 2" class="cls-3" d="M7.181,10.552l.586-1.146L6.463,5.28h.1l-1.3,4.126.588,1.146" transform="translate(1.786 1.654)"/>
      <ellipse id="Ellipse_2" data-name="Ellipse 2" class="cls-4" cx="2.609" cy="2.636" rx="2.609" ry="2.636" transform="translate(5.692 0.845)"/>
      <path id="Path_3" data-name="Path 3" class="cls-3" d="M12.809,10.864V9.546a5.261,5.261,0,0,0-3.978-5.1,2.5,2.5,0,0,1-2.48,0,5.261,5.261,0,0,0-3.976,5.1v1.318m20.23,0,.574-1.146-1.3-4.126h.13L20.7,9.717l.573,1.146" transform="translate(0.709 1.343)"/>
      <ellipse id="Ellipse_3" data-name="Ellipse 3" class="cls-4" cx="2.609" cy="2.636" rx="2.609" ry="2.636" transform="translate(20.04 0.845)"/>
      <path id="Path_4" data-name="Path 4" class="cls-3" d="M27.866,10.864V9.546a5.261,5.261,0,0,0-3.979-5.1,2.5,2.5,0,0,1-2.478,0,5.261,5.261,0,0,0-3.978,5.1v1.318m13.043,7.052a1.79,1.79,0,0,1-1.2.461h-.209a1.839,1.839,0,0,1-1.314-.553,1.881,1.881,0,0,1-.538-1.332,2.518,2.518,0,0,0-2.5-2.53h-.339a2.518,2.518,0,0,0-2.5,2.53,1.874,1.874,0,0,1-1.852,1.885H19.9a1.876,1.876,0,0,1-1.814-1.885,2.518,2.518,0,0,0-2.5-2.53H15.24a2.518,2.518,0,0,0-2.5,2.53,1.881,1.881,0,0,1-.538,1.332,1.843,1.843,0,0,1-1.314.553h-.1a1.876,1.876,0,0,1-1.866-1.885,2.53,2.53,0,0,0-.752-1.816,2.477,2.477,0,0,0-1.816-.714h-.3a2.518,2.518,0,0,0-2.506,2.53,1.875,1.875,0,0,1-1.865,1.885,1.8,1.8,0,0,1-1.2-.461" transform="translate(0 1.343)"/>
    </g>
  </g>
</svg>
