<svg xmlns="http://www.w3.org/2000/svg" xmlns:xlink="http://www.w3.org/1999/xlink" viewBox="0 0 48 48">
  <defs>
    <style>
      .cls-1 {
        clip-path: url(#clip-settings);
      }

      .cls-2 {
        fill: #1f2636;
        stroke: #1f2636;
      }

      .cls-3 {
        fill: #fff;
      }

      .cls-4 {
        stroke: none;
      }

      .cls-5 {
        fill: none;
      }
    </style>
    <clipPath id="clip-settings">
      <rect width="48" height="48"/>
    </clipPath>
  </defs>
  <g id="settings" class="cls-1">
    <g id="Ellipse_1" data-name="Ellipse 1" class="cls-2">
      <circle class="cls-4" cx="24" cy="24" r="24"/>
      <circle class="cls-5" cx="24" cy="24" r="23.5"/>
    </g>
    <g id="settings-2" data-name="settings" transform="translate(11.2 11.201)">
      <path id="Path_5" data-name="Path 5" class="cls-3" d="M1.842,5.954H5.116a4.109,4.109,0,0,0,2.25,2.7,4.183,4.183,0,0,0,3.535,0,4.114,4.114,0,0,0,2.25-2.7H24.758a1.03,1.03,0,1,0,0-2.061H13.151a4.112,4.112,0,0,0-2.25-2.7,4.183,4.183,0,0,0-3.535,0,4.114,4.114,0,0,0-2.25,2.7H1.842a1.031,1.031,0,1,0,0,2.061ZM9.133,2.861a2.083,2.083,0,0,1,1.925,1.274,2.047,2.047,0,0,1-.452,2.247,2.1,2.1,0,0,1-2.271.447,2.059,2.059,0,0,1,.8-3.966ZM1.842,14.2H13.449a4.107,4.107,0,0,0,2.25,2.7,4.183,4.183,0,0,0,3.535,0,4.114,4.114,0,0,0,2.25-2.7h3.274a1.031,1.031,0,1,0,0-2.062H21.484a4.112,4.112,0,0,0-2.25-2.7,4.183,4.183,0,0,0-3.535,0,4.114,4.114,0,0,0-2.25,2.7H1.842a1.031,1.031,0,1,0,0,2.063ZM17.467,11.11a2.082,2.082,0,0,1,1.925,1.272,2.046,2.046,0,0,1-.452,2.247,2.1,2.1,0,0,1-2.271.449,2.06,2.06,0,0,1,.8-3.968ZM1.842,22.451H5.116a4.114,4.114,0,0,0,2.25,2.7,4.183,4.183,0,0,0,3.535,0,4.114,4.114,0,0,0,2.25-2.7H24.758a1.03,1.03,0,1,0,0-2.061H13.151a4.112,4.112,0,0,0-2.25-2.7,4.183,4.183,0,0,0-3.535,0,4.114,4.114,0,0,0-2.25,2.7H1.842a1.031,1.031,0,1,0,0,2.061Zm7.292-3.093a2.083,2.083,0,0,1,1.925,1.271,2.048,2.048,0,0,1-.452,2.248,2.1,2.1,0,0,1-2.271.447,2.06,2.06,0,0,1,.8-3.968Z" transform="translate(0 0)"/>
    </g>
  </g>
</svg>
