<svg xmlns="http://www.w3.org/2000/svg" width="23" height="23" viewBox="0 0 23 23">
    <g fill="#1F8EFA" fill-rule="nonzero">
        <path d="M21.658 20.312c-.575 0-1.06.36-1.255.863h-4.184v-2.837h-.958v3.316c0 .269.215.48.48.48h4.662c.196.507.68.866 1.255.866a1.344 1.344 0 0 0 0-2.688zM21.658 10.153a1.35 1.35 0 0 0-1.255.868h-.389v.958h.389c.196.508.68.868 1.255.868.743 0 1.342-.604 1.342-1.347s-.6-1.347-1.342-1.347zM16.22 1.826h4.183c.196.503.68.863 1.255.863A1.34 1.34 0 0 0 23 1.347C23 .604 22.401 0 21.658 0c-.575 0-1.06.36-1.255.868H15.74a.48.48 0 0 0-.479.479v3.32h.959V1.826zM1.347 12.847c.574 0 1.06-.36 1.25-.868h.393v-.958h-.393a1.34 1.34 0 0 0-1.25-.868 1.348 1.348 0 0 0 0 2.694zM1.347 2.688c.574 0 1.06-.36 1.25-.863h4.188v2.841h.958v-3.32a.48.48 0 0 0-.479-.478H2.597A1.333 1.333 0 0 0 1.347 0a1.343 1.343 0 1 0 0 2.688zM6.785 21.174H2.597A1.344 1.344 0 1 0 1.347 23c.574 0 1.06-.36 1.25-.868h4.667c.264 0 .48-.21.48-.479v-3.316h-.959v2.837zM19.056 6.584a.958.958 0 0 0-.958-.959H4.907a.955.955 0 0 0-.959.959v9.837c0 .527.427.958.959.958h13.19a.961.961 0 0 0 .96-.958v-2.425h-3.71a2.502 2.502 0 0 1-2.496-2.497 2.502 2.502 0 0 1 2.496-2.497h3.71V6.584z"/>
        <path d="M13.81 11.5c0 .848.69 1.539 1.538 1.539h3.71V9.962h-3.71c-.848 0-1.538.69-1.538 1.538zm2.425 0a.75.75 0 1 1-1.5.005.75.75 0 0 1 1.5-.005z"/>
    </g>
</svg>
