<svg xmlns="http://www.w3.org/2000/svg" width="510" height="219" viewBox="0 0 510 219">
    <g fill="none" fill-rule="evenodd">
        <path fill="#286AA5" d="M74.735 5.376c-3.631-5.835-9.567-5.835-13.203-.004L32.391 52.281l35.742 57.532 35.743-57.532L74.735 5.376"/>
        <path fill="#597FB3" d="M32.391 52.281L3.254 99.188c-1.813 2.925-2.721 6.774-2.721 10.625 0 3.856.908 7.71 2.726 10.634l29.136 46.895 35.738-57.529-35.742-57.532M133.019 99.193l-29.143-46.912-35.743 57.532 35.739 57.529 29.137-46.895c1.663-2.679 2.525-6.143 2.666-9.673v-1.924c-.141-3.522-1.001-6.981-2.656-9.657"/>
        <path fill="#F8C638" d="M68.133 137.209l-27.23 43.833 20.621 33.193c1.816 2.926 4.211 4.388 6.606 4.39h.007c2.395-.002 4.789-1.464 6.601-4.39l20.624-33.193-27.229-43.833"/>
        <path fill="#FFFFFE" d="M363.74 81.785h56.83V67.583h-56.83zM206.92 67.583l-31.465 84.515-.004.006v.445h18.432l21.127-63.481 21.293 63.481h18.644l-31.824-84.966H206.92M293.117 87.225c2.895-4.305 7.299-6.435 13.211-6.435 2.895 0 5.336.31 7.369 1.03 2.01.645 3.66 1.65 4.953 2.991 1.268 1.314 2.248 2.941 2.944 4.904.668 1.937 1.125 4.187 1.316 6.699h17.492c-.429-4.307-1.437-8.328-3.039-11.988-1.578-3.66-3.781-6.843-6.629-9.5-2.847-2.678-6.293-4.76-10.361-6.268a38.265 38.265 0 0 0-3.557-1.075c-.003 0-.005 0-.007-.002-3.161-.766-6.653-1.172-10.481-1.172-3.424 0-6.629.382-9.621 1.172-.002.002-.004.002-.008.002a30.886 30.886 0 0 0-4.945 1.697c-4.356 1.914-8.063 4.641-11.129 8.183-3.062 3.542-5.406 7.826-7.082 12.875-1.676 5.07-2.512 10.744-2.512 16.988v5.6c0 6.269.813 11.918 2.442 16.967 1.601 5.025 3.922 9.308 6.914 12.873 3.015 3.519 6.701 6.222 11.054 8.113a30.95 30.95 0 0 0 4.93 1.676c3.016.789 6.27 1.172 9.738 1.172 3.807 0 7.325-.383 10.532-1.172.007-.002.011-.006.019-.006a31.327 31.327 0 0 0 3.475-1.026c4.092-1.459 7.607-3.468 10.48-6.076a27.451 27.451 0 0 0 6.748-9.285c1.676-3.613 2.61-7.586 2.92-11.918h-17.494c-.191 2.537-.668 4.762-1.41 6.652-.742 1.917-1.772 3.495-3.111 4.764-1.342 1.268-3.039 2.201-5.002 2.848-2.01.621-4.403.933-7.157.933-3.132 0-5.789-.576-7.992-1.675-2.199-1.102-3.947-2.778-5.334-5.002-1.388-2.203-2.392-4.977-3.041-8.28-.644-3.326-.955-7.156-.955-11.558v-5.719c0-9.021 1.436-15.674 4.33-19.982M363.74 152.549h56.951v-14.051H363.74zM363.74 115.902h56.951v-14.058H363.74zM484.625 109.719l24.742-42.136h-20.125l-15.935 29.312-15.936-29.312h-20.125l24.742 42.136-25.386 42.83h20.365l16.34-29.764 16.341 29.764h20.34l-25.363-42.83"/>
    </g>
</svg>
